<mxfile host="65bd71144e">
    <diagram id="bGE3eSWmCCWjXQUs_AP_" name="Page-1">
        <mxGraphModel dx="2122" dy="2112" grid="1" gridSize="10" guides="1" tooltips="1" connect="1" arrows="1" fold="1" page="1" pageScale="1" pageWidth="850" pageHeight="1100" math="0" shadow="0">
            <root>
                <mxCell id="0"/>
                <mxCell id="1" parent="0"/>
                <mxCell id="2" value="" style="rounded=0;whiteSpace=wrap;html=1;" vertex="1" parent="1">
                    <mxGeometry x="-110" y="-10" width="1080" height="950" as="geometry"/>
                </mxCell>
                <mxCell id="AppAluguel" value="&lt;i style=&quot;scrollbar-color: light-dark(#e2e2e2, #4b4b4b)&lt;br/&gt;&#x9;&#x9;&#x9;&#x9;&#x9;light-dark(#fbfbfb, var(--dark-panel-color));&quot;&gt;&amp;lt;&amp;lt;Aplicacao&amp;gt;&amp;gt;&lt;/i&gt;&lt;b&gt;&lt;br&gt;AppAluguel&lt;/b&gt;&lt;div&gt;&lt;br&gt;&lt;/div&gt;" style="swimlane;fontStyle=0;align=center;verticalAlign=top;childLayout=stackLayout;horizontal=1;startSize=36;horizontalStack=0;resizeParent=1;resizeParentMax=0;resizeLast=0;collapsible=1;marginBottom=0;whiteSpace=wrap;html=1;fillColor=#B3FF66;" parent="1" vertex="1">
                    <mxGeometry x="170" y="20" width="180" height="62" as="geometry"/>
                </mxCell>
                <mxCell id="AppAluguel_methods" value="+ main(args: String[])" style="text;strokeColor=none;fillColor=none;align=left;verticalAlign=top;spacingLeft=4;spacingRight=4;overflow=hidden;rotatable=0;points=[[0,0.5],[1,0.5]];portConstraint=eastwest;whiteSpace=wrap;html=1;" parent="AppAluguel" vertex="1">
                    <mxGeometry y="36" width="180" height="26" as="geometry"/>
                </mxCell>
                <mxCell id="AluguelForm" value="&lt;div&gt;&lt;b&gt;&amp;lt;&amp;lt;view&amp;gt;&amp;gt;&lt;/b&gt;&lt;/div&gt;&lt;b&gt;AluguelForm&lt;/b&gt;" style="swimlane;fontStyle=0;align=center;verticalAlign=top;childLayout=stackLayout;horizontal=1;startSize=36;horizontalStack=0;resizeParent=1;resizeParentMax=0;resizeLast=0;collapsible=1;marginBottom=0;whiteSpace=wrap;html=1;fillColor=#FFFF66;" parent="1" vertex="1">
                    <mxGeometry x="180" y="480" width="180" height="150" as="geometry"/>
                </mxCell>
                <mxCell id="AluguelForm_attrs" value="- controller: AluguelController&lt;br&gt;- txtValor: JTextField&lt;br&gt;- txtMesesOuDias: JTextField" style="text;strokeColor=none;fillColor=none;align=left;verticalAlign=top;spacingLeft=4;spacingRight=4;overflow=hidden;rotatable=0;points=[[0,0.5],[1,0.5]];portConstraint=eastwest;whiteSpace=wrap;html=1;" parent="AluguelForm" vertex="1">
                    <mxGeometry y="36" width="180" height="54" as="geometry"/>
                </mxCell>
                <mxCell id="AluguelForm_sep" value="" style="line;strokeWidth=1;fillColor=none;align=left;verticalAlign=middle;spacingTop=-1;spacingLeft=3;spacingRight=3;rotatable=0;labelPosition=right;points=[];portConstraint=eastwest;" parent="AluguelForm" vertex="1">
                    <mxGeometry y="90" width="180" height="8" as="geometry"/>
                </mxCell>
                <mxCell id="AluguelForm_methods" value="+ AluguelForm(...)&lt;br&gt;- processar()&lt;br&gt;- criarAluguel(...): Aluguel" style="text;strokeColor=none;fillColor=none;align=left;verticalAlign=top;spacingLeft=4;spacingRight=4;overflow=hidden;rotatable=0;points=[[0,0.5],[1,0.5]];portConstraint=eastwest;whiteSpace=wrap;html=1;" parent="AluguelForm" vertex="1">
                    <mxGeometry y="98" width="180" height="52" as="geometry"/>
                </mxCell>
                <mxCell id="arU0a10Ucl48eKL_MqDh-1" value="" style="edgeStyle=none;html=1;entryX=0.5;entryY=0;entryDx=0;entryDy=0;dashed=1;endArrow=open;endFill=0;" parent="1" source="AluguelController" target="AluguelRepository" edge="1">
                    <mxGeometry relative="1" as="geometry"/>
                </mxCell>
                <mxCell id="AluguelController" value="&lt;b&gt;&amp;lt;&amp;lt;controller&amp;gt;&amp;gt;&lt;br&gt;AluguelController&lt;/b&gt;&lt;div&gt;&lt;br&gt;&lt;/div&gt;" style="swimlane;fontStyle=0;align=center;verticalAlign=top;childLayout=stackLayout;horizontal=1;startSize=36;horizontalStack=0;resizeParent=1;resizeParentMax=0;resizeLast=0;collapsible=1;marginBottom=0;whiteSpace=wrap;html=1;fillColor=#99CCFF;" parent="1" vertex="1">
                    <mxGeometry x="160" y="120" width="180" height="122" as="geometry"/>
                </mxCell>
                <mxCell id="AluguelController_attrs" value="- repository: AluguelRepository" style="text;strokeColor=none;fillColor=none;align=left;verticalAlign=top;spacingLeft=4;spacingRight=4;overflow=hidden;rotatable=0;points=[[0,0.5],[1,0.5]];portConstraint=eastwest;whiteSpace=wrap;html=1;" parent="AluguelController" vertex="1">
                    <mxGeometry y="36" width="180" height="26" as="geometry"/>
                </mxCell>
                <mxCell id="AluguelController_sep" value="" style="line;strokeWidth=1;fillColor=none;align=left;verticalAlign=middle;spacingTop=-1;spacingLeft=3;spacingRight=3;rotatable=0;labelPosition=right;points=[];portConstraint=eastwest;" parent="AluguelController" vertex="1">
                    <mxGeometry y="62" width="180" height="8" as="geometry"/>
                </mxCell>
                <mxCell id="AluguelController_methods" value="+ processarAluguel(aluguel: Aluguel)&lt;br&gt;+ listarAlugueis(): List&amp;lt;String&amp;gt;" style="text;strokeColor=none;fillColor=none;align=left;verticalAlign=top;spacingLeft=4;spacingRight=4;overflow=hidden;rotatable=0;points=[[0,0.5],[1,0.5]];portConstraint=eastwest;whiteSpace=wrap;html=1;" parent="AluguelController" vertex="1">
                    <mxGeometry y="70" width="180" height="52" as="geometry"/>
                </mxCell>
                <mxCell id="arU0a10Ucl48eKL_MqDh-2" value="" style="edgeStyle=none;html=1;entryX=0.403;entryY=0.02;entryDx=0;entryDy=0;entryPerimeter=0;dashed=1;endArrow=open;endFill=0;" parent="1" source="AluguelRepository" target="AluguelForm" edge="1">
                    <mxGeometry relative="1" as="geometry"/>
                </mxCell>
                <mxCell id="AluguelRepository" value="&lt;div&gt;&lt;b&gt;&amp;lt;&amp;lt;repository&amp;gt;&amp;gt;&lt;/b&gt;&lt;/div&gt;&lt;b&gt;AluguelRepository&lt;/b&gt;" style="swimlane;fontStyle=0;align=center;verticalAlign=top;childLayout=stackLayout;horizontal=1;startSize=36;horizontalStack=0;resizeParent=1;resizeParentMax=0;resizeLast=0;collapsible=1;marginBottom=0;whiteSpace=wrap;html=1;fillColor=#FF66FF;" parent="1" vertex="1">
                    <mxGeometry x="160" y="290" width="180" height="122" as="geometry"/>
                </mxCell>
                <mxCell id="AluguelRepository_attrs" value="- arquivo: File" style="text;strokeColor=none;fillColor=none;align=left;verticalAlign=top;spacingLeft=4;spacingRight=4;overflow=hidden;rotatable=0;points=[[0,0.5],[1,0.5]];portConstraint=eastwest;whiteSpace=wrap;html=1;" parent="AluguelRepository" vertex="1">
                    <mxGeometry y="36" width="180" height="26" as="geometry"/>
                </mxCell>
                <mxCell id="AluguelRepository_sep" value="" style="line;strokeWidth=1;fillColor=none;align=left;verticalAlign=middle;spacingTop=-1;spacingLeft=3;spacingRight=3;rotatable=0;labelPosition=right;points=[];portConstraint=eastwest;" parent="AluguelRepository" vertex="1">
                    <mxGeometry y="62" width="180" height="8" as="geometry"/>
                </mxCell>
                <mxCell id="AluguelRepository_methods" value="+ salvar(linha: String)&lt;br&gt;+ listar(): List&amp;lt;String&amp;gt;" style="text;strokeColor=none;fillColor=none;align=left;verticalAlign=top;spacingLeft=4;spacingRight=4;overflow=hidden;rotatable=0;points=[[0,0.5],[1,0.5]];portConstraint=eastwest;whiteSpace=wrap;html=1;" parent="AluguelRepository" vertex="1">
                    <mxGeometry y="70" width="180" height="52" as="geometry"/>
                </mxCell>
                <mxCell id="Aluguel" value="&lt;i&gt;&amp;lt;&amp;lt;Interface&amp;gt;&amp;gt;&lt;/i&gt;&lt;br&gt;&lt;b&gt;Aluguel&lt;/b&gt;&lt;hr&gt;+ calcular(): String" style="html=1;whiteSpace=wrap;align=center;verticalAlign=middle;fillColor=#FF6666;" parent="1" vertex="1">
                    <mxGeometry x="160" y="700" width="130" height="60" as="geometry"/>
                </mxCell>
                <mxCell id="AluguelCasa" value="&lt;b&gt;AluguelCasa&lt;/b&gt;" style="swimlane;fontStyle=0;align=center;verticalAlign=top;childLayout=stackLayout;horizontal=1;startSize=26;horizontalStack=0;resizeParent=1;resizeParentMax=0;resizeLast=0;collapsible=1;marginBottom=0;whiteSpace=wrap;html=1;fillColor=#FF9999;" parent="1" vertex="1">
                    <mxGeometry x="50" y="830" width="170" height="92" as="geometry"/>
                </mxCell>
                <mxCell id="AluguelCasa_attrs" value="- valorMensal: double&lt;br&gt;- meses: int" style="text;strokeColor=none;fillColor=none;align=left;verticalAlign=top;spacingLeft=4;spacingRight=4;overflow=hidden;rotatable=0;points=[[0,0.5],[1,0.5]];portConstraint=eastwest;whiteSpace=wrap;html=1;" parent="AluguelCasa" vertex="1">
                    <mxGeometry y="26" width="170" height="40" as="geometry"/>
                </mxCell>
                <mxCell id="AluguelCasa_sep" value="" style="line;strokeWidth=1;fillColor=none;align=left;verticalAlign=middle;spacingTop=-1;spacingLeft=3;spacingRight=3;rotatable=0;labelPosition=right;points=[];portConstraint=eastwest;" parent="AluguelCasa" vertex="1">
                    <mxGeometry y="66" width="170" height="8" as="geometry"/>
                </mxCell>
                <mxCell id="AluguelCasa_methods" value="+ calcular(): String" style="text;strokeColor=none;fillColor=none;align=left;verticalAlign=top;spacingLeft=4;spacingRight=4;overflow=hidden;rotatable=0;points=[[0,0.5],[1,0.5]];portConstraint=eastwest;whiteSpace=wrap;html=1;" parent="AluguelCasa" vertex="1">
                    <mxGeometry y="74" width="170" height="18" as="geometry"/>
                </mxCell>
                <mxCell id="AluguelApartamento" value="&lt;b&gt;AluguelApartamento&lt;/b&gt;" style="swimlane;fontStyle=0;align=center;verticalAlign=top;childLayout=stackLayout;horizontal=1;startSize=26;horizontalStack=0;resizeParent=1;resizeParentMax=0;resizeLast=0;collapsible=1;marginBottom=0;whiteSpace=wrap;html=1;fillColor=#FF9999;" parent="1" vertex="1">
                    <mxGeometry x="260" y="830" width="170" height="92" as="geometry"/>
                </mxCell>
                <mxCell id="AluguelApartamento_attrs" value="- valorMensal: double&lt;br&gt;- meses: int" style="text;strokeColor=none;fillColor=none;align=left;verticalAlign=top;spacingLeft=4;spacingRight=4;overflow=hidden;rotatable=0;points=[[0,0.5],[1,0.5]];portConstraint=eastwest;whiteSpace=wrap;html=1;" parent="AluguelApartamento" vertex="1">
                    <mxGeometry y="26" width="170" height="40" as="geometry"/>
                </mxCell>
                <mxCell id="AluguelApartamento_sep" value="" style="line;strokeWidth=1;fillColor=none;align=left;verticalAlign=middle;spacingTop=-1;spacingLeft=3;spacingRight=3;rotatable=0;labelPosition=right;points=[];portConstraint=eastwest;" parent="AluguelApartamento" vertex="1">
                    <mxGeometry y="66" width="170" height="8" as="geometry"/>
                </mxCell>
                <mxCell id="AluguelApartamento_methods" value="+ calcular(): String" style="text;strokeColor=none;fillColor=none;align=left;verticalAlign=top;spacingLeft=4;spacingRight=4;overflow=hidden;rotatable=0;points=[[0,0.5],[1,0.5]];portConstraint=eastwest;whiteSpace=wrap;html=1;" parent="AluguelApartamento" vertex="1">
                    <mxGeometry y="74" width="170" height="18" as="geometry"/>
                </mxCell>
                <mxCell id="AluguelComercial" value="&lt;b&gt;AluguelComercial&lt;/b&gt;" style="swimlane;fontStyle=0;align=center;verticalAlign=top;childLayout=stackLayout;horizontal=1;startSize=26;horizontalStack=0;resizeParent=1;resizeParentMax=0;resizeLast=0;collapsible=1;marginBottom=0;whiteSpace=wrap;html=1;fillColor=#FF9999;" parent="1" vertex="1">
                    <mxGeometry x="470" y="830" width="170" height="92" as="geometry"/>
                </mxCell>
                <mxCell id="AluguelComercial_attrs" value="- valorMensal: double&lt;br&gt;- meses: int" style="text;strokeColor=none;fillColor=none;align=left;verticalAlign=top;spacingLeft=4;spacingRight=4;overflow=hidden;rotatable=0;points=[[0,0.5],[1,0.5]];portConstraint=eastwest;whiteSpace=wrap;html=1;" parent="AluguelComercial" vertex="1">
                    <mxGeometry y="26" width="170" height="40" as="geometry"/>
                </mxCell>
                <mxCell id="AluguelComercial_sep" value="" style="line;strokeWidth=1;fillColor=none;align=left;verticalAlign=middle;spacingTop=-1;spacingLeft=3;spacingRight=3;rotatable=0;labelPosition=right;points=[];portConstraint=eastwest;" parent="AluguelComercial" vertex="1">
                    <mxGeometry y="66" width="170" height="8" as="geometry"/>
                </mxCell>
                <mxCell id="AluguelComercial_methods" value="+ calcular(): String" style="text;strokeColor=none;fillColor=none;align=left;verticalAlign=top;spacingLeft=4;spacingRight=4;overflow=hidden;rotatable=0;points=[[0,0.5],[1,0.5]];portConstraint=eastwest;whiteSpace=wrap;html=1;" parent="AluguelComercial" vertex="1">
                    <mxGeometry y="74" width="170" height="18" as="geometry"/>
                </mxCell>
                <mxCell id="AluguelTemporada" value="&lt;b&gt;AluguelTemporada&lt;/b&gt;" style="swimlane;fontStyle=0;align=center;verticalAlign=top;childLayout=stackLayout;horizontal=1;startSize=26;horizontalStack=0;resizeParent=1;resizeParentMax=0;resizeLast=0;collapsible=1;marginBottom=0;whiteSpace=wrap;html=1;fillColor=#FF9999;" parent="1" vertex="1">
                    <mxGeometry x="680" y="830" width="170" height="92" as="geometry"/>
                </mxCell>
                <mxCell id="AluguelTemporada_attrs" value="- valorMensal: double&lt;br&gt;- dias: int" style="text;strokeColor=none;fillColor=none;align=left;verticalAlign=top;spacingLeft=4;spacingRight=4;overflow=hidden;rotatable=0;points=[[0,0.5],[1,0.5]];portConstraint=eastwest;whiteSpace=wrap;html=1;" parent="AluguelTemporada" vertex="1">
                    <mxGeometry y="26" width="170" height="40" as="geometry"/>
                </mxCell>
                <mxCell id="AluguelTemporada_sep" value="" style="line;strokeWidth=1;fillColor=none;align=left;verticalAlign=middle;spacingTop=-1;spacingLeft=3;spacingRight=3;rotatable=0;labelPosition=right;points=[];portConstraint=eastwest;" parent="AluguelTemporada" vertex="1">
                    <mxGeometry y="66" width="170" height="8" as="geometry"/>
                </mxCell>
                <mxCell id="AluguelTemporada_methods" value="+ calcular(): String" style="text;strokeColor=none;fillColor=none;align=left;verticalAlign=top;spacingLeft=4;spacingRight=4;overflow=hidden;rotatable=0;points=[[0,0.5],[1,0.5]];portConstraint=eastwest;whiteSpace=wrap;html=1;" parent="AluguelTemporada" vertex="1">
                    <mxGeometry y="74" width="170" height="18" as="geometry"/>
                </mxCell>
                <mxCell id="rel_App_Form" value="cria" style="endArrow=open;dashed=1;html=1;align=center;verticalAlign=bottom;" parent="1" source="AppAluguel" edge="1">
                    <mxGeometry relative="1" as="geometry">
                        <mxPoint x="260" y="120" as="targetPoint"/>
                    </mxGeometry>
                </mxCell>
                <mxCell id="rel_Form_Aluguel" value="cria e utiliza" style="endArrow=open;dashed=1;html=1;exitX=0.25;exitY=1;" parent="1" source="AluguelForm" target="Aluguel" edge="1">
                    <mxGeometry relative="1" as="geometry">
                        <mxPoint as="offset"/>
                    </mxGeometry>
                </mxCell>
                <mxCell id="impl_Casa_Aluguel" value="" style="endArrow=block;endFill=0;html=1;" parent="1" source="AluguelCasa" target="Aluguel" edge="1">
                    <mxGeometry relative="1" as="geometry"/>
                </mxCell>
                <mxCell id="impl_Apto_Aluguel" value="" style="endArrow=block;endFill=0;html=1;" parent="1" source="AluguelApartamento" target="Aluguel" edge="1">
                    <mxGeometry relative="1" as="geometry"/>
                </mxCell>
                <mxCell id="impl_Comercial_Aluguel" value="" style="endArrow=block;endFill=0;html=1;" parent="1" source="AluguelComercial" target="Aluguel" edge="1">
                    <mxGeometry relative="1" as="geometry"/>
                </mxCell>
                <mxCell id="impl_Temp_Aluguel" value="" style="endArrow=block;endFill=0;html=1;" parent="1" source="AluguelTemporada" target="Aluguel" edge="1">
                    <mxGeometry relative="1" as="geometry"/>
                </mxCell>
            </root>
        </mxGraphModel>
    </diagram>
</mxfile>